<?xml version="1.0" encoding="UTF-8" standalone="no"?>
<svg
   width="142"
   height="70"
   viewBox="0 0 142 70"
   version="1.1"
   id="svg7"
   sodipodi:docname="logo-aviator.svg"
   inkscape:export-filename="logo-aviator.svg"
   inkscape:export-xdpi="96"
   inkscape:export-ydpi="96"
   xmlns:inkscape="http://www.inkscape.org/namespaces/inkscape"
   xmlns:sodipodi="http://sodipodi.sourceforge.net/DTD/sodipodi-0.dtd"
   xmlns:xlink="http://www.w3.org/1999/xlink"
   xmlns="http://www.w3.org/2000/svg"
   xmlns:svg="http://www.w3.org/2000/svg">
  <sodipodi:namedview
     id="namedview7"
     pagecolor="#ffffff"
     bordercolor="#000000"
     borderopacity="0.25"
     inkscape:showpageshadow="2"
     inkscape:pageopacity="0.0"
     inkscape:pagecheckerboard="0"
     inkscape:deskcolor="#d1d1d1"
     showgrid="false"
     inkscape:export-bgcolor="#ffffff00">
    <inkscape:page
       x="0"
       y="0"
       width="142"
       height="70"
       id="page2"
       margin="0"
       bleed="0" />
  </sodipodi:namedview>
  <defs
     id="defs1">
    <path
       id="a"
       d="M 0.22,0.35 H 21.81 V 24.894 H 0.22 Z" />
    <path
       id="c"
       d="M 0.272,0.195 H 12.829 V 23.762 H 0.272 Z" />
  </defs>
  <g
     fill="none"
     fill-rule="evenodd"
     id="g7">
    <g
       transform="translate(120,81)"
       id="g3">
      <mask
         id="b"
         fill="#ffffff">
        <use
           xlink:href="#a"
           id="use2" />
      </mask>
      <path
         fill="#e50539"
         d="m 19.587,0.35 c -2.673,0 -4.986,0.694 -6.932,2.08 l 0.499,-2.08 h -6.6 L 0.221,24.895 H 6.854 L 10.298,11.467 C 10.736,9.821 11.595,8.284 12.876,6.854 14.157,5.42 15.599,4.429 17.213,3.882 l -0.787,3.189 h 3.615 l 1.77,-6.72 h -2.224 z"
         mask="url(#b)"
         id="path3" />
    </g>
    <path
       fill="#e50539"
       d="m 16.623,89.437 0.011,-0.073 2.981,-11.716 c 0.22,-0.98 0.68,-1.791 1.381,-2.424 0.701,-0.631 1.496,-0.948 2.364,-0.948 0.817,0 1.413,0.274 1.81,0.833 0.388,0.547 0.523,1.253 0.388,2.097 l -0.074,0.442 -2.981,11.716 -0.021,0.073 z M 30.192,72.854 C 28.706,71.62 26.708,71 24.187,71 c -2.751,0 -5.168,0.695 -7.27,2.076 -2.103,1.38 -3.432,3.213 -3.997,5.499 l -2.7,10.789 c -2.28,0 -4.393,0.01 -6.036,0.01 C 1.862,89.374 0,91.28 0,93.62 H 9.154 L 5.817,107 h 6.444 l 3.348,-13.38 h 5.869 l -2.082,8.302 c -0.0706,0.20505 -0.119865,0.41684 -0.147,0.632 -0.23,1.402 0.042,2.497 0.827,3.277 0.774,0.78 1.956,1.169 3.535,1.169 h 2.574 l 0.827,-3.277 c -0.932,-0.063 -1.319,-0.568 -1.161,-1.506 l 5.89,-23.642 c 0.01,-0.074 0.03,-0.2 0.083,-0.39 0.052,-0.2 0.073,-0.327 0.084,-0.4 0.334,-2.044 -0.241,-3.688 -1.716,-4.931 z m 70.036,8.796 1.45,-5.65 h -6.4 l -1.402,5.65 h -3.14 l -0.815,3.213 h 3.147 l -3.82,15.19 c -0.011,0.065 -0.038,0.178 -0.081,0.34 -0.03081,0.11096 -0.05584,0.22345 -0.075,0.337 -0.267,1.628 0.048,2.912 0.942,3.857 0.9,0.94 2.253,1.413 4.067,1.413 h 2.247 l 0.819,-3.26 c -1.316,-0.124 -1.862,-0.876 -1.637,-2.251 0.01,-0.065 0.031,-0.145 0.064,-0.242 0.027,-0.097 0.048,-0.156 0.053,-0.193 l 3.816,-15.191 h 2.723 L 103,81.65 Z M 94.217,38 80,35.067 94.213,29 97,32.441 Z M 28,63 v 0.019 L 28.028,63 Z"
       id="path4"
       sodipodi:nodetypes="ccccscccccccscccscccccccccsccccccccccccccccccscccccccccccccccccc" />
    <path
       fill="#e50539"
       d="m 87.73,39.881 c -0.51,0.752 -1.7,2.15 -3.449,1.865 -0.853,-0.144 -35.6,-7.164 -35.686,-7.17 -0.245,-0.066 -0.212,-0.587 0.231,-0.534 L 87.5,39.354 c 0.244,0.04 0.377,0.316 0.231,0.527 M 86.426,27.28 81.21,29.943 c 0,0 -1.212,-0.731 0.152,-1.345 0.351,-0.157 1.152,-0.612 1.8,-0.949 a 0.471,0.471 0 0 0 -0.046,-0.856 l -3.879,-1.55 c 0.656,-0.52 1.675,-0.83 2.648,-0.54 0.563,0.171 2.92,1.16 4.468,1.806 0.477,0.198 0.364,0.627 0.073,0.771 m -12.294,3.56 c -0.556,0.396 -4.22,-0.285 -4.22,-0.285 0,0 4.054,-3.587 7.91,-4.046 1.147,-0.136 3.467,0.758 3.467,0.758 0,0 -5.171,2.15 -7.157,3.573 m 39.56,-0.192 c -1.714,-3.736 -2.972,-6.927 -3.422,-7.691 -1.31,-2.208 -3.263,-2.09 -4.938,-1.8 -4.468,0.765 -6.21,1.55 -14.087,3.632 -1.158,0.317 -3.343,0.956 -4.547,0.54 -3.191,-1.087 -4.157,-1.957 -5.686,-1.786 -2.37,0.27 -7.243,2.551 -12.531,6.4 -1.656,1.186 -1.464,2.602 -1.755,3.538 a 0.332,0.332 0 0 0 0.285,0.428 c 0.767,0.08 9.161,0.806 9.545,0.859 a 0.347,0.347 0 0 1 -0.192,-0.31 c 0,-0.112 0.053,-0.224 0.172,-0.283 2.397,-1.286 11.095,-5.873 16.351,-7.936 7.189,-2.84 8.923,-3.144 11.108,-3.348 0.51,-0.046 1.225,-0.013 1.748,0.02 0.423,0.033 0.794,0.29 0.926,0.678 0.993,2.9 3.9,9.452 5.435,11.62 0,0 -0.271,0.514 -0.788,0.54 -0.404,0.008 -1.224,-0.75 -1.734,-1.199 a 0.349,0.349 0 0 0 -0.404,-0.026 c -8.619,5.293 -14.835,7.6 -15.728,7.916 a 0.296,0.296 0 0 1 -0.225,-0.007 l -4.402,-1.634 c 0,0 0.165,-0.139 0.576,-0.956 0.085,-0.191 0.132,-0.409 0.125,-0.547 -0.033,-0.699 -0.708,-0.857 -1.013,-0.897 -1.171,-0.145 -32.635,-4.765 -40.525,-5.536 -3.35,-0.336 -6.534,1.37 -7.911,3.157 l 0.007,0.046 4.468,4.636 c 0.1,0.105 0.252,0.132 0.378,0.072 l 3.515,-1.61 c 0,0 0.482,1.483 0.033,1.733 -2.92,1.595 -5.746,3.02 -8.48,4.449 -1.1,0.58 -1.073,1.672 -1.43,3.21 -0.15,0.644 -0.225,1.233 -0.225,1.233 0,0 6.13,-3.059 9.883,-4.845 a 0.336,0.336 0 0 1 0.384,0.073 c 0.536,0.573 0.712,0.705 1.076,1.067 a 0.33,0.33 0 0 1 -0.079,0.528 c -0.887,0.467 -1.8,0.948 -2.502,1.364 -0.556,0.33 0.009,1.43 0.009,1.43 l 10.2,-4.81 c 0,0 0.636,0.625 -0.49,1.317 C 55.083,47 38.997,55.165 37.613,55.2 c -3.647,0.092 -10.531,-6.743 -13.02,-7.784 -2.099,-0.877 -4.356,0.553 -7.421,2.346 -0.834,0.494 -0.325,1.687 -0.325,1.687 l 4.442,-2.24 c 0,0 0.55,0.632 -0.066,1.014 -2.151,1.358 -5.262,2.716 -5.74,3.059 -0.7,0.5 -0.431,2.847 -0.431,2.847 l 4.202,-1.94 c 0.126,-0.059 0.285,-0.039 0.344,0.02 l 9.006,8.537 a 10.145,10.145 0 0 0 1.668,-0.56 l -7.513,-7.955 a 0.334,0.334 0 0 1 0.093,-0.527 c 0.767,-0.39 1.688,-0.673 2.985,0.316 1.092,0.824 4.912,3.902 8.606,3.572 1.231,-0.105 1.251,0.27 1.251,0.27 0,0 -1.569,0.752 -3.43,1.767 -0.92,0.507 -0.171,1.845 -0.171,1.845 9.519,-3.888 21.242,-8.726 22.884,-9.431 a 0.345,0.345 0 0 1 0.338,0.046 l 2.753,2.175 c 0.39,0.606 19.972,-6.888 26.01,-9.926 0.337,-0.165 3.408,-0.027 4.891,-0.04 0.682,0 0.656,0.297 0.656,0.297 0,0 -49.006,19.45 -61.028,19.001 l -0.02,0.013 -2.561,1.095 c 1.503,0.988 1.145,2.695 3.7,1.377 0.152,0.35 0.331,0.719 0.517,1.114 0.496,1.075 0.496,1.081 3.746,-0.02 9.195,-3.097 50.548,-15.403 59.81,-19.219 5.229,-2.148 12.458,-5.114 16.966,-7.896 4.448,-2.735 5.355,-4.146 2.939,-9.412 m -1.416,-6.638 c -0.047,0.009 -0.102,0.018 -0.149,0.037 A 0.385,0.385 0 0 0 112,24.131 L 112.5,24 c -0.084,0 -0.148,0.01 -0.222,0.01 m 13.559,26.883 -0.066,0.104 -0.073,-0.104 c -0.046,-0.066 -4.593,-6.67 -6.237,-9.227 -0.497,-0.771 0.086,-1.157 0.086,-1.157 l 0.066,-0.04 0.047,0.06 c 0.232,0.287 5.594,7.18 6.29,8.448 0.53,0.948 -0.086,1.876 -0.113,1.916 m 1.1,-1.36 c -0.291,-1.152 -2.425,-8.782 -3.658,-11.581 L 117.658,28 c -0.537,0.713 -1.167,1.478 -1.77,2.034 -0.113,0.091 -0.232,0.17 -0.37,0.235 A 1.473,1.473 0 0 1 115,30.387 l 3.029,9.814 c 0.45,1.577 1.505,2.917 2.413,4.277 0.457,0.673 3.678,5.414 4.918,7.232 0.258,0.38 0.835,0.392 1.087,0.006 0.45,-0.68 0.67,-1.503 0.49,-2.184"
       id="path5" />
    <g
       transform="translate(103)"
       id="g6">
      <mask
         id="d"
         fill="#ffffff">
        <use
           xlink:href="#c"
           id="use5" />
      </mask>
      <path
         fill="#e50539"
         d="M 7.823,12.13 7.755,12.17 7.708,12.11 C 7.478,11.808 2.026,4.76 1.305,3.455 0.778,2.478 1.399,1.534 1.426,1.494 l 0.067,-0.1 0.075,0.1 c 0.047,0.073 4.682,6.84 6.35,9.45 0.505,0.79 -0.088,1.179 -0.095,1.185 z m 1.686,0.702 C 8.882,10.724 7.809,9.358 6.878,7.959 A 2595.75,2595.75 0 0 0 1.804,0.443 0.57,0.57 0 0 0 0.859,0.45 C 0.366,1.18 0.151,2.096 0.34,2.832 0.644,4.004 2.743,11.775 3.998,14.639 l 5.222,9.123 c 0.129,-0.14 0.29,-0.26 0.473,-0.341 a 1.2,1.2 0 0 1 0.391,-0.094 c 0.689,-0.047 1.768,-0.04 2.746,-0.02 L 9.51,12.832 Z"
         mask="url(#d)"
         id="path6" />
    </g>
    <path
       fill="#e50539"
       d="m 113.692,26.827 -0.826,-1.753 c 0,0 -0.15,-0.262 0.19,-0.4 0.027,-0.012 0.054,-0.025 0.088,-0.031 0,0 3.419,-0.112 4.489,0.081 0.568,0.106 0.589,0.293 0.589,0.293 z m 4.692,-2.558 c -1.428,-0.294 -4.13,-0.313 -5.748,-0.219 -0.068,0 -0.115,0 -0.176,0.006 -0.034,0.007 -0.075,0.013 -0.115,0.025 -0.0379,0.01392 -0.0726,0.03535 -0.102,0.063 -0.183,0.125 -0.298,0.368 -0.217,0.555 0.73842,1.733657 1.56346,3.429127 2.472,5.08 0.122,0.231 0.48,0.269 0.738,0.169 0.0527,-0.02346 0.10267,-0.05263 0.149,-0.087 1.38,-1.186 2.68,-2.865 3.5,-4.531 0.25,-0.524 0.095,-0.937 -0.5,-1.061 z M 101.038,24 c 0,0 -0.612,2.533 -1.575,5.458 l -1.784,-2.259 -1.446,0.659 2.63,3.335 C 98.043,33.443 97.053,35.681 96,37 l 2.636,-1.2 c 0.6,-0.558 1.085,-1.686 1.462,-3.038 l 1.448,1.837 1.454,-0.663 -2.455,-3.109 c 0.531,-2.81 0.683,-5.867 0.493,-6.827 M 90.25,118 h -38.5 c -0.962,0 -1.75,-0.9 -1.75,-2 0,-1.1 0.788,-2 1.75,-2 h 38.5 c 0.962,0 1.75,0.9 1.75,2 0,1.1 -0.788,2 -1.75,2 m -7.001,7 H 78.055119 58.75 c -0.963,0 -1.751,-0.9 -1.751,-2 0,-1.1 0.788,-2 1.751,-2 h 24.5 c 0.963,0 1.751,0.9 1.751,2 0,1.1 -0.788,2 -1.751,2"
       id="path7"
       sodipodi:nodetypes="ccccccccccccccccccccccccccccccccssssscccsssssc" />
  </g>
</svg>
